<?xml version="1.0" encoding="UTF-8"?>
<svg width="354px" height="235px" viewBox="0 0 354 235" version="1.1" xmlns="http://www.w3.org/2000/svg" xmlns:xlink="http://www.w3.org/1999/xlink">
    <!-- Generator: Sketch 56.2 (81672) - https://sketch.com -->
    <title>agile SOFTWARE DEVELOPMENT</title>
    <desc>Created with Sketch.</desc>
    <g id="Hubspot" stroke="none" stroke-width="1" fill="none" fill-rule="evenodd">
        <g id="agile" transform="translate(-57.000000, -122.000000)">
            <g id="agile-SOFTWARE-DEVELOPMENT" transform="translate(57.000000, 120.000000)">
                <path d="M271.414386,153.234235 L319.720076,153.234235 C338.652355,153.234235 354,168.578547 354,187.506715 L354,187.72752 C354,206.655688 338.652355,222 319.720076,222 L54.43252,222 C35.500241,222 20.1525964,206.655688 20.1525964,187.72752 L20.1525964,187.506715 C20.1525964,168.578547 35.500241,153.234235 54.43252,153.234235 L141.105639,153.234235 C148.199196,153.234235 153.949661,147.485019 153.949661,140.393002 C153.949661,134.042871 149.339365,128.769298 143.282642,127.735465 L12.8746448,127.735465 C5.76417481,127.735465 0,121.972542 0,114.863616 C0,107.75469 5.76417481,101.991767 12.8746448,101.991767 L99.6343459,101.991767 C106.744816,101.991767 112.508991,96.228844 112.508991,89.1199181 C112.508991,82.0109922 106.744816,76.2480691 99.6343459,76.2480691 L96.9747041,76.2480691 C80.9381095,76.2480691 67.937881,63.2506636 67.937881,47.2175514 L67.937881,47.0305177 C67.937881,30.9974055 80.9381095,18 96.9747041,18 L280.746701,18 C296.783296,18 309.783524,30.9974055 309.783524,47.0305177 L309.783524,47.2175514 C309.783524,63.2506636 296.783296,76.2480691 280.746701,76.2480691 L217.492816,76.2480691 C210.382346,76.2480691 204.618171,82.0109922 204.618171,89.1199181 C204.618171,96.228844 210.382346,101.991767 217.492816,101.991767 L302.987071,101.991767 C310.097541,101.991767 315.861716,107.75469 315.861716,114.863616 C315.861716,121.972542 310.097541,127.735465 302.987071,127.735465 L207.469917,127.735465 C207.876466,127.80486 208.276499,127.893357 208.669057,128 L275.821652,128 C268.640391,128 262.818829,133.820298 262.818829,141 C262.818829,146.632975 266.402287,151.429169 271.414386,153.234235 L271.414386,153.234235 Z" id="Path" fill="#E1EBF7" fill-rule="nonzero"></path>
                <g id="Agile-Circle" transform="translate(63.000000, 0.000000)">
                    <path d="M119.874409,14.405436 L119.874409,63.0577576 C88.501133,63.0577576 63.0680674,88.4908233 63.0680674,119.8641 L14.4157458,119.8641 C14.4157458,61.620888 61.6311977,14.405436 119.874409,14.405436 Z" id="Combined-Shape" fill="#474ABE"></path>
                    <g id="Group" transform="translate(60.135900, 152.871550) scale(-1, -1) rotate(-270.000000) translate(-60.135900, -152.871550) translate(-12.364100, 92.871550)" fill="#5392FF">
                        <path d="M126.318869,20.4775303 L160.280799,55.035283 C161.055026,55.8230936 161.044015,57.0893756 160.256205,57.8636032 C159.882181,58.2311782 159.378751,58.4371461 158.854342,58.4371461 L90.9304828,58.4371461 C89.8259133,58.4371461 88.9304828,57.5417156 88.9304828,56.4371461 C88.9304828,55.9127368 89.1364507,55.4093067 89.5040256,55.035283 L123.465955,20.4775303 C124.240183,19.6897197 125.506465,19.6787086 126.294275,20.4529362 C126.302544,20.4610628 126.310743,20.4692611 126.318869,20.4775303 Z" id="Triangle" transform="translate(124.892412, 38.731597) rotate(-270.000000) translate(-124.892412, -38.731597) "></path>
                        <path d="M1.38903946e-29,119.8641 C2.95711855e-14,61.620888 47.215452,14.405436 105.458664,14.405436 L105.458664,63.0577576 C74.0853873,63.0577576 48.6523216,88.4908233 48.6523216,119.8641 L0,119.8641 Z" id="Combined-Shape"></path>
                    </g>
                    <g id="Group" transform="translate(153.376674, 179.728199) rotate(-180.000000) translate(-153.376674, -179.728199) translate(80.876674, 119.728199)" fill="#92BAFF">
                        <path d="M126.318869,20.4775303 L160.280799,55.035283 C161.055026,55.8230936 161.044015,57.0893756 160.256205,57.8636032 C159.882181,58.2311782 159.378751,58.4371461 158.854342,58.4371461 L90.9304828,58.4371461 C89.8259133,58.4371461 88.9304828,57.5417156 88.9304828,56.4371461 C88.9304828,55.9127368 89.1364507,55.4093067 89.5040256,55.035283 L123.465955,20.4775303 C124.240183,19.6897197 125.506465,19.6787086 126.294275,20.4529362 C126.302544,20.4610628 126.310743,20.4692611 126.318869,20.4775303 Z" id="Triangle" transform="translate(124.892412, 38.731597) rotate(-270.000000) translate(-124.892412, -38.731597) "></path>
                        <path d="M1.38903946e-29,119.8641 C2.95711855e-14,61.620888 47.215452,14.405436 105.458664,14.405436 L105.458664,63.0577576 C74.0853873,63.0577576 48.6523216,88.4908233 48.6523216,119.8641 L0,119.8641 Z" id="Combined-Shape"></path>
                    </g>
                    <g id="Group" transform="translate(179.874409, 87.041336) rotate(-270.000000) translate(-179.874409, -87.041336) translate(107.374409, 27.041336)" fill="#20214F">
                        <path d="M126.318869,20.4775303 L160.280799,55.035283 C161.055026,55.8230936 161.044015,57.0893756 160.256205,57.8636032 C159.882181,58.2311782 159.378751,58.4371461 158.854342,58.4371461 L90.9304828,58.4371461 C89.8259133,58.4371461 88.9304828,57.5417156 88.9304828,56.4371461 C88.9304828,55.9127368 89.1364507,55.4093067 89.5040256,55.035283 L123.465955,20.4775303 C124.240183,19.6897197 125.506465,19.6787086 126.294275,20.4529362 C126.302544,20.4610628 126.310743,20.4692611 126.318869,20.4775303 Z" id="Triangle" transform="translate(124.892412, 38.731597) rotate(-270.000000) translate(-124.892412, -38.731597) "></path>
                        <path d="M1.38903946e-29,119.8641 C2.95711855e-14,61.620888 47.215452,14.405436 105.458664,14.405436 L105.458664,63.0577576 C74.0853873,63.0577576 48.6523216,88.4908233 48.6523216,119.8641 L0,119.8641 Z" id="Combined-Shape"></path>
                    </g>
                    <path d="M140.734615,20.4775303 L174.696545,55.035283 C175.470772,55.8230936 175.459761,57.0893756 174.67195,57.8636032 C174.297927,58.2311782 173.794497,58.4371461 173.270087,58.4371461 L105.346229,58.4371461 C104.241659,58.4371461 103.346229,57.5417156 103.346229,56.4371461 C103.346229,55.9127368 103.552196,55.4093067 103.919771,55.035283 L137.881701,20.4775303 C138.655928,19.6897197 139.922211,19.6787086 140.710021,20.4529362 C140.71829,20.4610628 140.726489,20.4692611 140.734615,20.4775303 Z" id="Triangle" fill="#474ABE" transform="translate(139.308158, 38.731597) rotate(-270.000000) translate(-139.308158, -38.731597) "></path>
                    <text id="Agile" font-family="Roboto-Medium, Roboto" font-size="24.1902605" font-weight="400" fill="#20214F">
                        <tspan x="87.0558045" y="127.730464">AGILE</tspan>
                    </text>
                    <text id="Plan" font-family="Roboto-Regular, Roboto" font-size="13.590034" font-weight="normal" fill="#20214F">
                        <tspan x="181.78219" y="93.9966025">Plan</tspan>
                    </text>
                </g>
            </g>
        </g>
    </g>
</svg>